<svg xmlns="http://www.w3.org/2000/svg" xmlns:xlink="http://www.w3.org/1999/xlink" xmlns:lucid="lucid" width="1101" height="681.21"><g transform="translate(-79.5 40.5)" lucid:page-tab-id="0_0"><path d="M300 360.5h200v240H300z" stroke="#000" fill="#fff"/><path d="M300 406.5a6 6 0 0 1 6-6h188a6 6 0 0 1 6 6v28a6 6 0 0 1-6 6H306a6 6 0 0 1-6-6z" stroke="#000" stroke-opacity="0" fill="#e3fae3"/><use xlink:href="#a" transform="matrix(1,0,0,1,305,405.5000345078448) translate(62.16666666666666 22.648611111111112)"/><path d="M300 446.5a6 6 0 0 1 6-6h188a6 6 0 0 1 6 6v28a6 6 0 0 1-6 6H306a6 6 0 0 1-6-6z" stroke="#000" stroke-opacity="0" fill="#e3fae3"/><use xlink:href="#b" transform="matrix(1,0,0,1,305,445.50003450784476) translate(71.33333333333334 22.648611111111112)"/><path d="M300 487.5a6 6 0 0 1 6-6h188a6 6 0 0 1 6 6v28a6 6 0 0 1-6 6H306a6 6 0 0 1-6-6z" stroke="#000" stroke-opacity="0" fill="#e3fae3"/><use xlink:href="#c" transform="matrix(1,0,0,1,305,486.5000345078448) translate(58.5 22.648611111111112)"/><path d="M300 526.5a6 6 0 0 1 6-6h188a6 6 0 0 1 6 6v28a6 6 0 0 1-6 6H306a6 6 0 0 1-6-6z" stroke="#000" stroke-opacity="0" fill="#e3fae3"/><use xlink:href="#d" transform="matrix(1,0,0,1,305,525.5000345078448) translate(69.43333333333334 22.648611111111112)"/><path d="M300 567.5a6 6 0 0 1 6-6h188a6 6 0 0 1 6 6v28a6 6 0 0 1-6 6H306a6 6 0 0 1-6-6z" stroke="#000" stroke-opacity="0" fill="#6f7681"/><use xlink:href="#e" transform="matrix(1,0,0,1,305,566.5000345078448) translate(57.888888888888886 22.648611111111112)"/><path d="M300 366.5a6 6 0 0 1 6-6h188a6 6 0 0 1 6 6v28a6 6 0 0 1-6 6H306a6 6 0 0 1-6-6z" stroke="#000" stroke-opacity="0" fill="#e3fae3"/><use xlink:href="#f" transform="matrix(1,0,0,1,305,365.50003450784476) translate(64.9 22.648611111111112)"/><path d="M300.25 521a.25.25 0 0 1 .25-.25h199a.25.25 0 0 1 .25.25.25.25 0 0 1-.25.25h-199a.25.25 0 0 1-.25-.25zM300.25 401a.25.25 0 0 1 .25-.25h199a.25.25 0 0 1 .25.25.25.25 0 0 1-.25.25h-199a.25.25 0 0 1-.25-.25zM300.25 441a.25.25 0 0 1 .25-.25h199a.25.25 0 0 1 .25.25.25.25 0 0 1-.25.25h-199a.25.25 0 0 1-.25-.25zM300.25 481a.25.25 0 0 1 .25-.25h199a.25.25 0 0 1 .25.25.25.25 0 0 1-.25.25h-199a.25.25 0 0 1-.25-.25zM300.25 561a.25.25 0 0 1 .25-.25h199a.25.25 0 0 1 .25.25.25.25 0 0 1-.25.25h-199a.25.25 0 0 1-.25-.25z" stroke="#000" stroke-width=".5" fill="none"/><path d="M100 346a6 6 0 0 1 6-6h188a6 6 0 0 1 6 6v28a6 6 0 0 1-6 6H106a6 6 0 0 1-6-6z" stroke="#000" stroke-opacity="0" fill="#fff" fill-opacity="0"/><use xlink:href="#g" transform="matrix(1,0,0,1,105,345) translate(29.86666666666666 22.586111111111112)"/><use xlink:href="#h" transform="matrix(1,0,0,1,105,345) translate(109.64444444444445 22.586111111111112)"/><path d="M100 386a6 6 0 0 1 6-6h188a6 6 0 0 1 6 6v28a6 6 0 0 1-6 6H106a6 6 0 0 1-6-6z" stroke="#000" stroke-opacity="0" fill="#fff" fill-opacity="0"/><use xlink:href="#g" transform="matrix(1,0,0,1,105,385) translate(29.86666666666666 22.586111111111112)"/><use xlink:href="#i" transform="matrix(1,0,0,1,105,385) translate(109.64444444444445 22.586111111111112)"/><path d="M100 586.2a6 6 0 0 1 6-6h188a6 6 0 0 1 6 6v28a6 6 0 0 1-6 6H106a6 6 0 0 1-6-6z" stroke="#000" stroke-opacity="0" fill="#fff" fill-opacity="0"/><use xlink:href="#j" transform="matrix(1,0,0,1,105,585.2145509641816) translate(69.16666666666666 22.586111111111112)"/><use xlink:href="#k" transform="matrix(1,0,0,1,105,585.2145509641816) translate(87.0111111111111 22.586111111111112)"/><path d="M601.75 359.7h300v240.02h-300z" stroke="#000" fill="#c3f7c8"/><path d="M701.75 405.7a6 6 0 0 1 6-6h188a6 6 0 0 1 6 6v28a6 6 0 0 1-6 6h-188a6 6 0 0 1-6-6z" stroke="#000" stroke-opacity="0" fill="#c3f7c8"/><use xlink:href="#a" transform="matrix(1,0,0,1,706.754779602381,404.7145509641817) translate(62.16666666666666 22.648611111111112)"/><path d="M701.75 445.7a6 6 0 0 1 6-6h188a6 6 0 0 1 6 6v28a6 6 0 0 1-6 6h-188a6 6 0 0 1-6-6z" stroke="#000" stroke-opacity="0" fill="#c3f7c8"/><use xlink:href="#b" transform="matrix(1,0,0,1,706.754779602381,444.7145509641818) translate(71.33333333333334 22.648611111111112)"/><path d="M701.75 486.7a6 6 0 0 1 6-6h188a6 6 0 0 1 6 6v28.02a6 6 0 0 1-6 6h-188a6 6 0 0 1-6-6z" stroke="#000" stroke-opacity="0" fill="#c3f7c8"/><use xlink:href="#c" transform="matrix(1,0,0,1,706.754779602381,485.7145509641817) translate(58.5 22.648611111111112)"/><path d="M701.75 525.7a6 6 0 0 1 6-6h188a6 6 0 0 1 6 6v28a6 6 0 0 1-6 6h-188a6 6 0 0 1-6-6z" stroke="#000" stroke-opacity="0" fill="#dfe3e8"/><use xlink:href="#d" transform="matrix(1,0,0,1,706.754779602381,524.7145509641816) translate(69.43333333333334 22.648611111111112)"/><path d="M701.75 566.7a6 6 0 0 1 6-6h188a6 6 0 0 1 6 6v28a6 6 0 0 1-6 6h-188a6 6 0 0 1-6-6z" stroke="#000" stroke-opacity="0" fill="#6f7681"/><use xlink:href="#e" transform="matrix(1,0,0,1,706.754779602381,565.7145509641816) translate(57.888888888888886 22.648611111111112)"/><path d="M701.75 366.7a6 6 0 0 1 6-6h188a6 6 0 0 1 6 6v28a6 6 0 0 1-6 6h-188a6 6 0 0 1-6-6z" stroke="#000" stroke-opacity="0" fill="#f2f3f5"/><use xlink:href="#f" transform="matrix(1,0,0,1,706.754779602381,365.7145509641817) translate(64.9 22.648611111111112)"/><path d="M702 520.2a.25.25 0 0 1 .25-.24h199a.25.25 0 0 1 .25.25.25.25 0 0 1-.25.26h-199a.25.25 0 0 1-.25-.25zM702 400.2a.25.25 0 0 1 .25-.24h199a.25.25 0 0 1 .25.25.25.25 0 0 1-.25.26h-199a.25.25 0 0 1-.25-.25zM702 440.2a.25.25 0 0 1 .25-.24h199a.25.25 0 0 1 .25.25.25.25 0 0 1-.25.26h-199a.25.25 0 0 1-.25-.25zM702 480.2a.25.25 0 0 1 .25-.24h199a.25.25 0 0 1 .25.25.25.25 0 0 1-.25.26h-199a.25.25 0 0 1-.25-.25zM702 560.2a.25.25 0 0 1 .25-.24h199a.25.25 0 0 1 .25.25.25.25 0 0 1-.25.26h-199a.25.25 0 0 1-.25-.25z" stroke="#000" stroke-width=".5" fill="none"/><path d="M702.25 359.96a.25.25 0 0 1 .25.25v236a.25.25 0 0 1-.25.26.25.25 0 0 1-.25-.25v-236a.25.25 0 0 1 .25-.24z" stroke="#000" stroke-width=".5" fill="none"/><path d="M601.75 442.55a6 6 0 0 1 6-6h89a6 6 0 0 1 6 6v75.33a6 6 0 0 1-6 6h-89a6 6 0 0 1-6-6z" stroke="#000" stroke-opacity="0" fill="#fff" fill-opacity="0"/><use xlink:href="#l" transform="matrix(1,0,0,1,606.754779602381,441.547884297515) translate(3.17777777777777 23.148611111111112)"/><use xlink:href="#m" transform="matrix(1,0,0,1,606.754779602381,441.547884297515) translate(4.022222222222226 48.926388888888894)"/><use xlink:href="#n" transform="matrix(1,0,0,1,606.754779602381,441.547884297515) translate(19.177777777777777 74.70416666666667)"/><path d="M600-1.76h300v240H600z" stroke="#000" fill="#ffdda6"/><path d="M700 44.24a6 6 0 0 1 6-6h188a6 6 0 0 1 6 6v28a6 6 0 0 1-6 6H706a6 6 0 0 1-6-6z" stroke="#000" stroke-opacity="0" fill="#ffdda6"/><use xlink:href="#o" transform="matrix(1,0,0,1,705,43.24257038359632) translate(75.63333333333333 22.648611111111112)"/><path d="M700 86.24a6 6 0 0 1 6-6h188a6 6 0 0 1 6 6V196.5a6 6 0 0 1-6 6H706a6 6 0 0 1-6-6z" stroke="#000" stroke-opacity="0" fill="#ffdda6"/><use xlink:href="#p" transform="matrix(1,0,0,1,705,85.24257038359633) translate(67.63333333333333 63.08611111111111)"/><path d="M700 5.24a6 6 0 0 1 6-6h188a6 6 0 0 1 6 6v28a6 6 0 0 1-6 6H706a6 6 0 0 1-6-6z" stroke="#000" stroke-opacity="0" fill="#ffdda6"/><use xlink:href="#d" transform="matrix(1,0,0,1,705,4.242570383596323) translate(69.43333333333334 22.648611111111112)"/><path d="M700.25 38.74a.25.25 0 0 1 .25-.25h199a.25.25 0 0 1 .25.24.25.25 0 0 1-.25.25h-199a.25.25 0 0 1-.25-.26zM700.25 78.74a.25.25 0 0 1 .25-.25h199a.25.25 0 0 1 .25.24.25.25 0 0 1-.25.25h-199a.25.25 0 0 1-.25-.26z" stroke="#000" stroke-width=".5" fill="none"/><path d="M700.5-1.5a.25.25 0 0 1 .25.24v236a.25.25 0 0 1-.25.25.25.25 0 0 1-.25-.26v-236a.25.25 0 0 1 .25-.25z" stroke="#000" stroke-width=".5" fill="none"/><path d="M600 94.74a6 6 0 0 1 6-6h89a6 6 0 0 1 6 6v48a6 6 0 0 1-6 6h-89a6 6 0 0 1-6-6z" stroke="#000" stroke-opacity="0" fill="#fff" fill-opacity="0"/><use xlink:href="#q" transform="matrix(1,0,0,1,605,93.74257038359627) translate(21.02222222222222 33.21111111111111)"/><path d="M498.75 599.74h95.63" stroke="#008a0e" stroke-linejoin="round" fill="none"/><path d="M498.76 599.24v1h-1.1l.58-.5.43-.5z" stroke="#008a0e" stroke-width=".05" fill="#008a0e"/><path d="M600.27 599.74l-12.9 7.64V592.1z" stroke="#008a0e" fill="#008a0e"/><path d="M501 360l93.38-.73" stroke="#008a0e" stroke-linejoin="round" fill="none"/><path d="M501.02 360.5h-.52v-.5h-3v-.48l3.5-.02z" stroke="#008a0e" stroke-width=".05" fill="#008a0e"/><path d="M600.27 359.22l-12.85 7.74-.12-15.27z" stroke="#008a0e" fill="#008a0e"/><use xlink:href="#r" transform="matrix(1,0,0,1,443.53975621970494,325.2115816871943) translate(0.009999999999990905 20.711111111111112)"/><use xlink:href="#s" transform="matrix(1,0,0,1,443.53975621970494,325.2115816871943) translate(88.41 20.711111111111112)"/><use xlink:href="#t" transform="matrix(1,0,0,1,443.53975621970494,325.2115816871943) translate(147.96555555555557 20.711111111111112)"/><path d="M902.76 559.74h.2l.67.02h.68l.68-.06.66-.08.67-.1.67-.13.67-.17.67-.2.7-.22.68-.25.7-.3.73-.35.75-.4.75-.43.8-.5.8-.6.85-.64.9-.75.93-.85.98-.98 1.05-1.13 1.13-1.3 1.2-1.53 1.27-1.8 1.4-2.14 1.5-2.54 1.68-3.08 1.83-3.76 2.05-4.66 2.27-5.86 2.54-7.48 2.86-9.73 3.2-12.9 3.57-17.37 3.82-23.75 3.85-32.5 3.32-43.3 1.86-53.57-.38-58.07-2.56-53.5-3.86-43.1-4.24-32.13-4.07-23.34-3.7-16.97-3.3-12.5-2.88-9.4-2.55-7.2-2.26-5.6-2-4.43-1.8-3.58-1.63-2.9-1.47-2.4-1.35-2.02-1.23-1.68-1.15-1.43-1.07-1.22-1-1.06-.94-.9-.88-.8-.84-.7-.8-.6-.78-.52-.74-.46-.72-.4-.7-.37-.67-.32-.66-.27-.64-.23-.08-.03" stroke="#000" stroke-linejoin="round" fill="none"/><path d="M902.8 559.24l-.06 1-.5-.02v-1z" stroke="#000" stroke-width=".05"/><path d="M901.43 35.9l14.7-2.92-5.06 14.4z" stroke="#000"/><path d="M902.76 521.36h.2l.68.02.67-.02.68-.04.67-.08.66-.1.68-.13.66-.15.68-.2.68-.22.7-.26.7-.3.72-.35.73-.4.76-.44.8-.5.82-.58.85-.65.9-.75.92-.85.98-.98 1.04-1.13 1.12-1.3 1.2-1.54 1.28-1.8 1.4-2.13 1.5-2.55 1.68-3.07 1.83-3.77 2.04-4.66 2.27-5.86 2.54-7.48 2.86-9.73 3.2-12.9 3.56-17.35 3.83-23.73 3.85-32.45 3.3-43.24 1.88-53.48-.38-57.94-2.55-53.4-3.86-43.03-4.23-32.1-4.07-23.33-3.7-16.96-3.3-12.5-2.88-9.4-2.56-7.2-2.26-5.6-2-4.43-1.8-3.57-1.63-2.9-1.48-2.42-1.35-2-1.24-1.68-1.15-1.43-1.07-1.23-1-1.06-.94-.9-.9-.8-.83-.68-.82-.6-.77-.53-.73-.47-.72-.4-.7-.37-.67-.3-.66-.3-.65-.22-.1-.03" stroke="#000" stroke-linejoin="round" fill="none"/><path d="M902.8 520.86l-.06 1-.5-.03v-1z" stroke="#000" stroke-width=".05"/><path d="M901.43-1.93l14.7-2.93-5.05 14.4z" stroke="#000"/><path d="M720 274.2a6 6 0 0 1 6-6h228a6 6 0 0 1 6 6v49.56a6 6 0 0 1-6 6H726a6 6 0 0 1-6-6z" stroke="#000" stroke-opacity="0" fill="#fff" fill-opacity="0"/><use xlink:href="#u" transform="matrix(1,0,0,1,725,273.20078289611126) translate(13.400000000000006 23.961111111111112)"/><use xlink:href="#v" transform="matrix(1,0,0,1,725,273.20078289611126) translate(69.75555555555556 23.961111111111112)"/><use xlink:href="#w" transform="matrix(1,0,0,1,725,273.20078289611126) translate(148.6888888888889 23.961111111111112)"/><use xlink:href="#x" transform="matrix(1,0,0,1,725,273.20078289611126) translate(64.82222222222222 49.738888888888894)"/><use xlink:href="#y" transform="matrix(1,0,0,1,725,273.20078289611126) translate(90.75555555555556 49.738888888888894)"/><path d="M960 346a6 6 0 0 1 6-6h188a6 6 0 0 1 6 6v28a6 6 0 0 1-6 6H966a6 6 0 0 1-6-6z" stroke="#000" stroke-opacity="0" fill="#fff" fill-opacity="0"/><use xlink:href="#z" transform="matrix(1,0,0,1,965,345) translate(29.86666666666666 22.586111111111112)"/><use xlink:href="#h" transform="matrix(1,0,0,1,965,345) translate(109.64444444444445 22.586111111111112)"/><path d="M960 586a6 6 0 0 1 6-6h188a6 6 0 0 1 6 6v28a6 6 0 0 1-6 6H966a6 6 0 0 1-6-6z" stroke="#000" stroke-opacity="0" fill="#fff" fill-opacity="0"/><use xlink:href="#A" transform="matrix(1,0,0,1,965,585) translate(29.86666666666666 22.586111111111112)"/><use xlink:href="#h" transform="matrix(1,0,0,1,965,585) translate(109.64444444444445 22.586111111111112)"/><path d="M960-14a6 6 0 0 1 6-6h188a6 6 0 0 1 6 6v28a6 6 0 0 1-6 6H966a6 6 0 0 1-6-6z" stroke="#000" stroke-opacity="0" fill="#fff" fill-opacity="0"/><g><use xlink:href="#B" transform="matrix(1,0,0,1,965,-15) translate(29.86666666666666 22.586111111111112)"/><use xlink:href="#h" transform="matrix(1,0,0,1,965,-15) translate(109.64444444444445 22.586111111111112)"/></g><path d="M960 227a6 6 0 0 1 6-6h188a6 6 0 0 1 6 6v28a6 6 0 0 1-6 6H966a6 6 0 0 1-6-6z" stroke="#000" stroke-opacity="0" fill="#fff" fill-opacity="0"/><g><use xlink:href="#C" transform="matrix(1,0,0,1,965,226.00003450784482) translate(29.86666666666666 22.586111111111112)"/><use xlink:href="#h" transform="matrix(1,0,0,1,965,226.00003450784482) translate(109.64444444444445 22.586111111111112)"/></g><path d="M879.33 179v-72.2M879.33 178.97V180" stroke="#000" stroke-width="2" fill="none"/><path d="M879.33 91.55l4.64 14.26h-9.27z" stroke="#000" stroke-width="2"/><path d="M700.25 202a.25.25 0 0 1 .25-.25h199a.25.25 0 0 1 .25.25.25.25 0 0 1-.25.25h-199a.25.25 0 0 1-.25-.25z" stroke="#000" stroke-width=".5" fill="none"/><path d="M701.75 208.5a6 6 0 0 1 6-6H894a6 6 0 0 1 6 6v23.74a6 6 0 0 1-6 6H707.75a6 6 0 0 1-6-6z" stroke="#000" stroke-opacity="0" fill="#dfe3e8"/><g><use xlink:href="#D" transform="matrix(1,0,0,1,706.754779602381,207.5000345078448) translate(16.232222222222248 17.747777777777777)"/><use xlink:href="#E" transform="matrix(1,0,0,1,706.754779602381,207.5000345078448) translate(86.2788888888889 17.747777777777777)"/><use xlink:href="#F" transform="matrix(1,0,0,1,706.754779602381,207.5000345078448) translate(111.30777777777779 17.747777777777777)"/></g><path d="M960 188a6 6 0 0 1 6-6h188a6 6 0 0 1 6 6v28a6 6 0 0 1-6 6H966a6 6 0 0 1-6-6z" stroke="#000" stroke-opacity="0" fill="#fff" fill-opacity="0"/><g><use xlink:href="#G" transform="matrix(1,0,0,1,965,187.0000345078448) translate(29.86666666666666 22.586111111111112)"/><use xlink:href="#h" transform="matrix(1,0,0,1,965,187.0000345078448) translate(109.64444444444445 22.586111111111112)"/></g><defs><path fill="#3a414a" d="M-2 106h500v79H-2v-79" id="H"/><path fill="#3a414a" d="M315 12C141 9 53-87 53-259c0-164 81-274 237-274 163 0 227 118 216 298H150c9 108 58 165 175 165 54 0 101-11 133-25l13 78c-33 16-99 31-156 29zm95-322c8-101-82-177-178-132-47 22-73 71-80 132h258" id="I"/><path fill="#3a414a" d="M279-449c-36 1-74 4-104 10V0H82v-505c55-13 130-26 207-26 153 0 213 87 213 239V0h-93v-272c1-107-22-180-130-177" id="J"/><path fill="#3a414a" d="M257 11C121 11 76-66 76-201v-464l93-16v161h197v78H169v240c-1 80 17 131 96 131 43 0 79-13 103-23l18 77c-27 12-82 28-129 28" id="K"/><path fill="#3a414a" d="M82-498c73-28 204-47 296-18l-16 81c-44-19-138-19-187-2V0H82v-498" id="L"/><path fill="#3a414a" d="M266-100c50-137 84-270 119-420h96C435-330 371-148 306 16 261 129 164 226 4 172l17-75c41 21 118 16 149-11 20-17 39-42 56-79C145-149 66-333 18-520h100c37 148 89 293 148 420" id="M"/><g id="a"><use transform="matrix(0.022222222222222223,0,0,0.022222222222222223,0,0)" xlink:href="#H"/><use transform="matrix(0.022222222222222223,0,0,0.022222222222222223,11.022222222222222,0)" xlink:href="#I"/><use transform="matrix(0.022222222222222223,0,0,0.022222222222222223,23.533333333333328,0)" xlink:href="#J"/><use transform="matrix(0.022222222222222223,0,0,0.022222222222222223,36.37777777777778,0)" xlink:href="#K"/><use transform="matrix(0.022222222222222223,0,0,0.022222222222222223,45.400000000000006,0)" xlink:href="#L"/><use transform="matrix(0.022222222222222223,0,0,0.022222222222222223,54.533333333333346,0)" xlink:href="#M"/></g><path fill="#3a414a" d="M125-121c39 0 67 30 67 67s-28 67-67 67-67-30-67-67 28-67 67-67" id="N"/><path fill="#3a414a" d="M18 0c47-93 120-191 180-273L26-520h105l124 182 125-182h99L311-279C371-196 448-94 495 0H393c-39-75-91-148-140-214-49 66-99 140-139 214H18" id="O"/><g id="b"><use transform="matrix(0.022222222222222223,0,0,0.022222222222222223,0,0)" xlink:href="#N"/><use transform="matrix(0.022222222222222223,0,0,0.022222222222222223,5.555555555555555,0)" xlink:href="#K"/><use transform="matrix(0.022222222222222223,0,0,0.022222222222222223,14.355555555555554,0)" xlink:href="#I"/><use transform="matrix(0.022222222222222223,0,0,0.022222222222222223,26.866666666666667,0)" xlink:href="#O"/><use transform="matrix(0.022222222222222223,0,0,0.022222222222222223,38.31111111111111,0)" xlink:href="#K"/></g><path fill="#3a414a" d="M297-533c160 0 244 110 244 273S457 13 297 13 53-97 53-260s84-273 244-273zm0 464c98 0 147-85 147-191s-49-191-147-191-147 85-147 191S199-69 297-69" id="P"/><path fill="#3a414a" d="M315-70c41 0 75-4 103-11v-329c-24-19-73-42-119-40-110 2-147 80-149 190-2 113 59 189 165 190zm-28-462c51-2 103 18 131 35v-263l93-16v761C458-1 388 13 314 12 145 7 53-90 53-260c0-162 75-266 234-272" id="Q"/><path fill="#3a414a" d="M139-156c0 106 132 93 220 82v-155c-78-22-220-23-220 73zm-94 1c-2-152 173-180 314-148 5-94-26-150-117-150-50 0-101 8-132 20l-11-77c32-13 99-23 151-23 135 0 201 66 200 199V-9C390 1 319 11 247 11 126 11 46-34 45-155" id="R"/><g id="c"><use transform="matrix(0.022222222222222223,0,0,0.022222222222222223,0,0)" xlink:href="#N"/><use transform="matrix(0.022222222222222223,0,0,0.022222222222222223,5.555555555555555,0)" xlink:href="#L"/><use transform="matrix(0.022222222222222223,0,0,0.022222222222222223,14.222222222222223,0)" xlink:href="#P"/><use transform="matrix(0.022222222222222223,0,0,0.022222222222222223,27.422222222222224,0)" xlink:href="#Q"/><use transform="matrix(0.022222222222222223,0,0,0.022222222222222223,40.6,0)" xlink:href="#R"/><use transform="matrix(0.022222222222222223,0,0,0.022222222222222223,52.28888888888889,0)" xlink:href="#K"/><use transform="matrix(0.022222222222222223,0,0,0.022222222222222223,61.31111111111111,0)" xlink:href="#R"/></g><g id="d"><use transform="matrix(0.022222222222222223,0,0,0.022222222222222223,0,0)" xlink:href="#N"/><use transform="matrix(0.022222222222222223,0,0,0.022222222222222223,5.555555555555555,0)" xlink:href="#Q"/><use transform="matrix(0.022222222222222223,0,0,0.022222222222222223,18.733333333333334,0)" xlink:href="#R"/><use transform="matrix(0.022222222222222223,0,0,0.022222222222222223,30.422222222222224,0)" xlink:href="#K"/><use transform="matrix(0.022222222222222223,0,0,0.022222222222222223,39.44444444444444,0)" xlink:href="#R"/></g><path fill="#3a414a" d="M300-71c36 0 74-3 103-10v-439h93v505C441-2 367 11 290 11 138 11 76-78 76-228v-292h93v272c2 116 24 177 131 177" id="S"/><path fill="#3a414a" d="M59-97c36 13 83 32 144 30 63-2 112-9 112-63 0-99-160-93-221-153-24-24-44-52-44-100 0-151 196-178 331-127l-17 80c-60-35-257-49-214 69 69 92 264 59 259 227-2 107-89 146-206 146C133 12 82-2 42-17" id="T"/><g id="e"><use transform="matrix(0.022222222222222223,0,0,0.022222222222222223,0,0)" xlink:href="#S"/><use transform="matrix(0.022222222222222223,0,0,0.022222222222222223,12.844444444444445,0)" xlink:href="#J"/><use transform="matrix(0.022222222222222223,0,0,0.022222222222222223,25.68888888888889,0)" xlink:href="#S"/><use transform="matrix(0.022222222222222223,0,0,0.022222222222222223,38.53333333333333,0)" xlink:href="#T"/><use transform="matrix(0.022222222222222223,0,0,0.022222222222222223,48.53333333333334,0)" xlink:href="#I"/><use transform="matrix(0.022222222222222223,0,0,0.022222222222222223,61.044444444444444,0)" xlink:href="#Q"/></g><path fill="#3a414a" d="M682-533C610-400 540-239 477-96h-78c-63-145-132-302-205-437-15 163-23 356-30 533H69c10-236 25-474 51-693h85c86 143 163 321 233 480 71-159 147-337 233-480h85c23 223 40 454 51 693h-95c-7-177-15-370-30-533" id="U"/><path fill="#3a414a" d="M252 108c114 0 161-44 156-160-25 15-79 35-127 33-151-6-228-96-228-252 0-162 90-254 252-260 75-2 141 15 195 27v464c0 164-85 227-250 228-62 1-124-12-168-27l17-81c38 15 98 28 153 28zm38-207c46 2 92-16 117-35v-304c-29-7-58-11-101-11-102-1-157 76-156 179 2 102 44 167 140 171" id="V"/><path fill="#3a414a" d="M175 0H82v-520h93V0zm13-675c0 35-26 61-60 61s-60-26-60-61 26-61 60-61 60 26 60 61" id="W"/><path fill="#3a414a" d="M447-14c-35 17-88 26-139 26C139 12 53-90 53-259c0-187 118-299 319-268 23 4 46 10 67 19l-21 79c-28-13-66-22-107-22-111 1-162 75-161 192 1 118 51 189 170 189 43 1 87-10 114-22" id="X"/><g id="f"><use transform="matrix(0.022222222222222223,0,0,0.022222222222222223,0,0)" xlink:href="#U"/><use transform="matrix(0.022222222222222223,0,0,0.022222222222222223,19.444444444444446,0)" xlink:href="#R"/><use transform="matrix(0.022222222222222223,0,0,0.022222222222222223,31.133333333333333,0)" xlink:href="#V"/><use transform="matrix(0.022222222222222223,0,0,0.022222222222222223,44.06666666666667,0)" xlink:href="#W"/><use transform="matrix(0.022222222222222223,0,0,0.022222222222222223,49.77777777777778,0)" xlink:href="#X"/></g><path fill="#3a414a" d="M284 15C113 15 52-150 52-347s61-362 232-362 232 165 232 362S455 15 284 15zm64-105c75-64 80-230 64-365-11-87-37-172-128-172-152 0-143 232-128 388 8 87 37 172 128 172 25 0 47-8 64-23" id="Y"/><g id="g"><use transform="matrix(0.022222222222222223,0,0,0.022222222222222223,0,0)" xlink:href="#Y"/><use transform="matrix(0.022222222222222223,0,0,0.022222222222222223,12.622222222222224,0)" xlink:href="#O"/><use transform="matrix(0.022222222222222223,0,0,0.022222222222222223,24.066666666666666,0)" xlink:href="#Y"/><use transform="matrix(0.022222222222222223,0,0,0.022222222222222223,36.6888888888889,0)" xlink:href="#Y"/><use transform="matrix(0.022222222222222223,0,0,0.022222222222222223,49.31111111111111,0)" xlink:href="#Y"/><use transform="matrix(0.022222222222222223,0,0,0.022222222222222223,61.93333333333334,0)" xlink:href="#Y"/></g><g id="h"><use transform="matrix(0.022222222222222223,0,0,0.022222222222222223,0,0)" xlink:href="#Y"/><use transform="matrix(0.022222222222222223,0,0,0.022222222222222223,12.622222222222224,0)" xlink:href="#Y"/><use transform="matrix(0.022222222222222223,0,0,0.022222222222222223,25.244444444444447,0)" xlink:href="#Y"/><use transform="matrix(0.022222222222222223,0,0,0.022222222222222223,37.866666666666674,0)" xlink:href="#Y"/></g><path fill="#3a414a" d="M494-528c0 86-50 135-103 171 79 37 120 96 120 177 0 132-91 195-228 195C147 15 57-49 57-175c0-91 56-141 114-179-65-37-98-92-98-165 0-121 86-190 211-190s210 64 210 181zM245-324c-53 30-94 73-94 150 0 74 53 109 133 112 98 3 162-77 121-168-25-57-90-78-160-94zm64-59c51-32 92-67 92-146 0-64-47-98-117-103-109-8-151 120-85 191 26 28 64 47 110 58" id="Z"/><g id="i"><use transform="matrix(0.022222222222222223,0,0,0.022222222222222223,0,0)" xlink:href="#Y"/><use transform="matrix(0.022222222222222223,0,0,0.022222222222222223,12.622222222222224,0)" xlink:href="#Y"/><use transform="matrix(0.022222222222222223,0,0,0.022222222222222223,25.244444444444447,0)" xlink:href="#Y"/><use transform="matrix(0.022222222222222223,0,0,0.022222222222222223,37.866666666666674,0)" xlink:href="#Z"/></g><path fill="#3a414a" d="M42-240c77-166 189-328 311-453h89v440h82v76h-82V0h-90v-177H42v-63zm310-343c-86 94-162 208-220 330h220v-330" id="aa"/><use transform="matrix(0.022222222222222223,0,0,0.022222222222222223,0,0)" xlink:href="#aa" id="j"/><path fill="#3a414a" d="M594-203C589-38 465 6 275 6 209 6 142 1 88-11v-672c188-30 472-44 472 165 1 79-42 125-99 148 77 24 136 68 133 167zm-100 1c0-142-168-119-310-121v244c136 8 310 16 310-123zm-34-309c0-119-159-112-276-104v214c128 0 276 15 276-110" id="ab"/><g id="k"><use transform="matrix(0.022222222222222223,0,0,0.022222222222222223,0,0)" xlink:href="#U"/><use transform="matrix(0.022222222222222223,0,0,0.022222222222222223,19.444444444444446,0)" xlink:href="#ab"/></g><path fill="#3a414a" d="M278-449c-36 0-74 4-103 10V0H82v-505c94-23 290-55 347 27 41-28 96-52 166-53 149-3 194 91 194 239V0h-93v-272c0-100-11-177-111-177-50 0-96 17-119 35 30 114 10 276 16 414h-93v-272c0-99-12-179-111-177" id="ac"/><g id="l"><use transform="matrix(0.022222222222222223,0,0,0.022222222222222223,0,0)" xlink:href="#U"/><use transform="matrix(0.022222222222222223,0,0,0.022222222222222223,19.444444444444446,0)" xlink:href="#I"/><use transform="matrix(0.022222222222222223,0,0,0.022222222222222223,31.955555555555556,0)" xlink:href="#ac"/><use transform="matrix(0.022222222222222223,0,0,0.022222222222222223,51.17777777777778,0)" xlink:href="#P"/><use transform="matrix(0.022222222222222223,0,0,0.022222222222222223,64.37777777777778,0)" xlink:href="#L"/><use transform="matrix(0.022222222222222223,0,0,0.022222222222222223,73.51111111111112,0)" xlink:href="#M"/></g><path fill="#3a414a" d="M294-70c109-2 147-79 149-189 2-113-59-188-165-189-45 0-73 2-103 10v328c24 19 73 42 119 40zm-15-461c169 5 261 102 261 272C540-98 465 6 306 12c-51 2-103-18-131-35v208H82v-689c54-12 122-29 197-27" id="ad"/><g id="m"><use transform="matrix(0.022222222222222223,0,0,0.022222222222222223,0,0)" xlink:href="#ac"/><use transform="matrix(0.022222222222222223,0,0,0.022222222222222223,19.22222222222222,0)" xlink:href="#R"/><use transform="matrix(0.022222222222222223,0,0,0.022222222222222223,30.91111111111111,0)" xlink:href="#ad"/><use transform="matrix(0.022222222222222223,0,0,0.022222222222222223,44.08888888888889,0)" xlink:href="#ad"/><use transform="matrix(0.022222222222222223,0,0,0.022222222222222223,57.266666666666666,0)" xlink:href="#I"/><use transform="matrix(0.022222222222222223,0,0,0.022222222222222223,69.77777777777777,0)" xlink:href="#Q"/></g><path fill="#3a414a" d="M88 0v-693h418v83H185v209h285v82H185V0H88" id="ae"/><path fill="#3a414a" d="M173-151c-3 59 26 79 78 83l-13 78C129 7 80-30 80-136v-624l93-16v625" id="af"/><path fill="#3a414a" d="M279-449c-38 1-76 8-104 17V0H82v-760l93-16v266c32-12 72-21 114-21 153-1 213 87 213 239V0h-93v-272c1-107-22-181-130-177" id="ag"/><g id="n"><use transform="matrix(0.022222222222222223,0,0,0.022222222222222223,0,0)" xlink:href="#ae"/><use transform="matrix(0.022222222222222223,0,0,0.022222222222222223,12.022222222222222,0)" xlink:href="#af"/><use transform="matrix(0.022222222222222223,0,0,0.022222222222222223,18.177777777777777,0)" xlink:href="#R"/><use transform="matrix(0.022222222222222223,0,0,0.022222222222222223,29.866666666666667,0)" xlink:href="#T"/><use transform="matrix(0.022222222222222223,0,0,0.022222222222222223,39.86666666666667,0)" xlink:href="#ag"/></g><path fill="#3a414a" d="M279 12C204 13 135-1 82-15v-745l93-16v279c28-17 80-37 131-35 159 6 234 110 234 272C540-90 448 7 279 12zm15-462c-46-2-95 21-119 40v329c28 7 62 11 103 11 106 0 167-77 165-190-2-110-39-188-149-190" id="ah"/><g id="o"><use transform="matrix(0.022222222222222223,0,0,0.022222222222222223,0,0)" xlink:href="#N"/><use transform="matrix(0.022222222222222223,0,0,0.022222222222222223,5.555555555555555,0)" xlink:href="#ah"/><use transform="matrix(0.022222222222222223,0,0,0.022222222222222223,18.733333333333334,0)" xlink:href="#T"/><use transform="matrix(0.022222222222222223,0,0,0.022222222222222223,28.733333333333334,0)" xlink:href="#T"/></g><path fill="#3a414a" d="M64-114c42 22 110 45 185 45 127 0 189-72 139-159-74-129-329-76-337-288-8-203 271-234 423-150l-31 79c-73-47-295-73-292 60 2 88 82 103 147 131 102 44 200 79 205 222C510 40 191 50 35-34" id="ai"/><path fill="#3a414a" d="M490-520c-69 78-147 159-220 234 93 75 176 181 240 286H401c-59-95-136-186-226-250V0H82v-760l93-16v474c70-69 142-144 206-218h109" id="aj"/><g id="p"><use transform="matrix(0.022222222222222223,0,0,0.022222222222222223,0,0)" xlink:href="#ai"/><use transform="matrix(0.022222222222222223,0,0,0.022222222222222223,11.911111111111111,0)" xlink:href="#K"/><use transform="matrix(0.022222222222222223,0,0,0.022222222222222223,20.933333333333334,0)" xlink:href="#R"/><use transform="matrix(0.022222222222222223,0,0,0.022222222222222223,32.62222222222222,0)" xlink:href="#X"/><use transform="matrix(0.022222222222222223,0,0,0.022222222222222223,43.044444444444444,0)" xlink:href="#aj"/></g><path fill="#3a414a" d="M571-481c0 104-59 163-144 191 67 84 137 186 186 290H507c-51-97-115-192-181-272-45 2-94 0-141 1V0H88v-683c49-13 125-17 184-17 175 0 299 58 299 219zm-102-1c0-139-153-139-284-130v261c140 0 284 11 284-131" id="ak"/><path fill="#3a414a" d="M10 0c89-244 173-472 279-693h89C484-472 568-243 657 0H551c-23-60-41-116-63-177H174L111 0H10zm450-257c-42-112-82-221-129-325-48 103-88 212-129 325h258" id="al"/><g id="q"><use transform="matrix(0.022222222222222223,0,0,0.022222222222222223,0,0)" xlink:href="#ak"/><use transform="matrix(0.022222222222222223,0,0,0.022222222222222223,14.68888888888889,0)" xlink:href="#al"/><use transform="matrix(0.022222222222222223,0,0,0.022222222222222223,29.511111111111113,0)" xlink:href="#U"/></g><path fill="#008a0e" d="M682-533C610-400 540-239 477-96h-78c-63-145-132-302-205-437-15 163-23 356-30 533H69c10-236 25-474 51-693h85c86 143 163 321 233 480 71-159 147-337 233-480h85c23 223 40 454 51 693h-95c-7-177-15-370-30-533" id="am"/><path fill="#008a0e" d="M139-156c0 106 132 93 220 82v-155c-78-22-220-23-220 73zm-94 1c-2-152 173-180 314-148 5-94-26-150-117-150-50 0-101 8-132 20l-11-77c32-13 99-23 151-23 135 0 201 66 200 199V-9C390 1 319 11 247 11 126 11 46-34 45-155" id="an"/><path fill="#008a0e" d="M294-70c109-2 147-79 149-189 2-113-59-188-165-189-45 0-73 2-103 10v328c24 19 73 42 119 40zm-15-461c169 5 261 102 261 272C540-98 465 6 306 12c-51 2-103-18-131-35v208H82v-689c54-12 122-29 197-27" id="ao"/><path fill="#008a0e" d="M315 12C141 9 53-87 53-259c0-164 81-274 237-274 163 0 227 118 216 298H150c9 108 58 165 175 165 54 0 101-11 133-25l13 78c-33 16-99 31-156 29zm95-322c8-101-82-177-178-132-47 22-73 71-80 132h258" id="ap"/><path fill="#008a0e" d="M315-70c41 0 75-4 103-11v-329c-24-19-73-42-119-40-110 2-147 80-149 190-2 113 59 189 165 190zm-28-462c51-2 103 18 131 35v-263l93-16v761C458-1 388 13 314 12 145 7 53-90 53-260c0-162 75-266 234-272" id="aq"/><g id="r"><use transform="matrix(0.022222222222222223,0,0,0.022222222222222223,0,0)" xlink:href="#am"/><use transform="matrix(0.022222222222222223,0,0,0.022222222222222223,19.444444444444446,0)" xlink:href="#an"/><use transform="matrix(0.022222222222222223,0,0,0.022222222222222223,31.133333333333333,0)" xlink:href="#ao"/><use transform="matrix(0.022222222222222223,0,0,0.022222222222222223,44.31111111111112,0)" xlink:href="#ao"/><use transform="matrix(0.022222222222222223,0,0,0.022222222222222223,57.488888888888894,0)" xlink:href="#ap"/><use transform="matrix(0.022222222222222223,0,0,0.022222222222222223,70,0)" xlink:href="#aq"/></g><path fill="#008a0e" d="M300-71c36 0 74-3 103-10v-439h93v505C441-2 367 11 290 11 138 11 76-78 76-228v-292h93v272c2 116 24 177 131 177" id="ar"/><path fill="#008a0e" d="M59-97c36 13 83 32 144 30 63-2 112-9 112-63 0-99-160-93-221-153-24-24-44-52-44-100 0-151 196-178 331-127l-17 80c-60-35-257-49-214 69 69 92 264 59 259 227-2 107-89 146-206 146C133 12 82-2 42-17" id="as"/><path fill="#008a0e" d="M175 0H82v-520h93V0zm13-675c0 35-26 61-60 61s-60-26-60-61 26-61 60-61 60 26 60 61" id="at"/><path fill="#008a0e" d="M279-449c-36 1-74 4-104 10V0H82v-505c55-13 130-26 207-26 153 0 213 87 213 239V0h-93v-272c1-107-22-180-130-177" id="au"/><path fill="#008a0e" d="M252 108c114 0 161-44 156-160-25 15-79 35-127 33-151-6-228-96-228-252 0-162 90-254 252-260 75-2 141 15 195 27v464c0 164-85 227-250 228-62 1-124-12-168-27l17-81c38 15 98 28 153 28zm38-207c46 2 92-16 117-35v-304c-29-7-58-11-101-11-102-1-157 76-156 179 2 102 44 167 140 171" id="av"/><g id="s"><use transform="matrix(0.022222222222222223,0,0,0.022222222222222223,0,0)" xlink:href="#ar"/><use transform="matrix(0.022222222222222223,0,0,0.022222222222222223,12.844444444444445,0)" xlink:href="#as"/><use transform="matrix(0.022222222222222223,0,0,0.022222222222222223,22.844444444444445,0)" xlink:href="#at"/><use transform="matrix(0.022222222222222223,0,0,0.022222222222222223,28.555555555555557,0)" xlink:href="#au"/><use transform="matrix(0.022222222222222223,0,0,0.022222222222222223,41.400000000000006,0)" xlink:href="#av"/></g><path fill="#008a0e" d="M447-14c-35 17-88 26-139 26C139 12 53-90 53-259c0-187 118-299 319-268 23 4 46 10 67 19l-21 79c-28-13-66-22-107-22-111 1-162 75-161 192 1 118 51 189 170 189 43 1 87-10 114-22" id="aw"/><path fill="#008a0e" d="M279-449c-38 1-76 8-104 17V0H82v-760l93-16v266c32-12 72-21 114-21 153-1 213 87 213 239V0h-93v-272c1-107-22-181-130-177" id="ax"/><g id="t"><use transform="matrix(0.022222222222222223,0,0,0.022222222222222223,0,0)" xlink:href="#aw"/><use transform="matrix(0.022222222222222223,0,0,0.022222222222222223,10.422222222222222,0)" xlink:href="#an"/><use transform="matrix(0.022222222222222223,0,0,0.022222222222222223,22.111111111111114,0)" xlink:href="#aw"/><use transform="matrix(0.022222222222222223,0,0,0.022222222222222223,32.53333333333334,0)" xlink:href="#ax"/><use transform="matrix(0.022222222222222223,0,0,0.022222222222222223,45.31111111111112,0)" xlink:href="#ap"/></g><g id="u"><use transform="matrix(0.022222222222222223,0,0,0.022222222222222223,0,0)" xlink:href="#N"/><use transform="matrix(0.022222222222222223,0,0,0.022222222222222223,5.555555555555555,0)" xlink:href="#Q"/><use transform="matrix(0.022222222222222223,0,0,0.022222222222222223,18.733333333333334,0)" xlink:href="#R"/><use transform="matrix(0.022222222222222223,0,0,0.022222222222222223,30.422222222222224,0)" xlink:href="#K"/><use transform="matrix(0.022222222222222223,0,0,0.022222222222222223,39.44444444444444,0)" xlink:href="#R"/></g><g id="v"><use transform="matrix(0.022222222222222223,0,0,0.022222222222222223,0,0)" xlink:href="#T"/><use transform="matrix(0.022222222222222223,0,0,0.022222222222222223,10,0)" xlink:href="#I"/><use transform="matrix(0.022222222222222223,0,0,0.022222222222222223,22.511111111111113,0)" xlink:href="#X"/><use transform="matrix(0.022222222222222223,0,0,0.022222222222222223,32.93333333333334,0)" xlink:href="#K"/><use transform="matrix(0.022222222222222223,0,0,0.022222222222222223,41.95555555555556,0)" xlink:href="#W"/><use transform="matrix(0.022222222222222223,0,0,0.022222222222222223,47.66666666666667,0)" xlink:href="#P"/><use transform="matrix(0.022222222222222223,0,0,0.022222222222222223,60.86666666666668,0)" xlink:href="#J"/></g><g id="w"><use transform="matrix(0.022222222222222223,0,0,0.022222222222222223,0,0)" xlink:href="#X"/><use transform="matrix(0.022222222222222223,0,0,0.022222222222222223,10.133333333333333,0)" xlink:href="#P"/><use transform="matrix(0.022222222222222223,0,0,0.022222222222222223,23.333333333333336,0)" xlink:href="#ad"/><use transform="matrix(0.022222222222222223,0,0,0.022222222222222223,36.51111111111111,0)" xlink:href="#W"/><use transform="matrix(0.022222222222222223,0,0,0.022222222222222223,42.22222222222222,0)" xlink:href="#I"/><use transform="matrix(0.022222222222222223,0,0,0.022222222222222223,54.733333333333334,0)" xlink:href="#Q"/></g><g id="x"><use transform="matrix(0.022222222222222223,0,0,0.022222222222222223,0,0)" xlink:href="#R"/><use transform="matrix(0.022222222222222223,0,0,0.022222222222222223,11.68888888888889,0)" xlink:href="#K"/></g><g id="y"><use transform="matrix(0.022222222222222223,0,0,0.022222222222222223,0,0)" xlink:href="#T"/><use transform="matrix(0.022222222222222223,0,0,0.022222222222222223,10,0)" xlink:href="#K"/><use transform="matrix(0.022222222222222223,0,0,0.022222222222222223,19.022222222222222,0)" xlink:href="#R"/><use transform="matrix(0.022222222222222223,0,0,0.022222222222222223,30.711111111111112,0)" xlink:href="#L"/><use transform="matrix(0.022222222222222223,0,0,0.022222222222222223,39.37777777777778,0)" xlink:href="#K"/><use transform="matrix(0.022222222222222223,0,0,0.022222222222222223,48.4,0)" xlink:href="#S"/><use transform="matrix(0.022222222222222223,0,0,0.022222222222222223,61.244444444444454,0)" xlink:href="#ad"/></g><path fill="#3a414a" d="M251-709c137-2 218 63 218 193 0 127-100 188-167 261-37 40-88 87-116 136-9 15-13 29-13 40h319V0H72c-7-158 94-233 172-317 52-56 126-98 126-196 0-75-44-113-118-113-68 0-113 33-148 66l-46-66c44-44 106-81 193-83" id="ay"/><g id="z"><use transform="matrix(0.022222222222222223,0,0,0.022222222222222223,0,0)" xlink:href="#Y"/><use transform="matrix(0.022222222222222223,0,0,0.022222222222222223,12.622222222222224,0)" xlink:href="#O"/><use transform="matrix(0.022222222222222223,0,0,0.022222222222222223,24.066666666666666,0)" xlink:href="#aa"/><use transform="matrix(0.022222222222222223,0,0,0.022222222222222223,36.6888888888889,0)" xlink:href="#ay"/><use transform="matrix(0.022222222222222223,0,0,0.022222222222222223,49.31111111111111,0)" xlink:href="#Y"/><use transform="matrix(0.022222222222222223,0,0,0.022222222222222223,61.93333333333334,0)" xlink:href="#Y"/></g><g id="A"><use transform="matrix(0.022222222222222223,0,0,0.022222222222222223,0,0)" xlink:href="#Y"/><use transform="matrix(0.022222222222222223,0,0,0.022222222222222223,12.622222222222224,0)" xlink:href="#O"/><use transform="matrix(0.022222222222222223,0,0,0.022222222222222223,24.066666666666666,0)" xlink:href="#aa"/><use transform="matrix(0.022222222222222223,0,0,0.022222222222222223,36.6888888888889,0)" xlink:href="#ay"/><use transform="matrix(0.022222222222222223,0,0,0.022222222222222223,49.31111111111111,0)" xlink:href="#aa"/><use transform="matrix(0.022222222222222223,0,0,0.022222222222222223,61.93333333333334,0)" xlink:href="#Y"/></g><g id="B"><use transform="matrix(0.022222222222222223,0,0,0.022222222222222223,0,0)" xlink:href="#Y"/><use transform="matrix(0.022222222222222223,0,0,0.022222222222222223,12.622222222222224,0)" xlink:href="#O"/><use transform="matrix(0.022222222222222223,0,0,0.022222222222222223,24.066666666666666,0)" xlink:href="#aa"/><use transform="matrix(0.022222222222222223,0,0,0.022222222222222223,36.6888888888889,0)" xlink:href="#Y"/><use transform="matrix(0.022222222222222223,0,0,0.022222222222222223,49.31111111111111,0)" xlink:href="#Z"/><use transform="matrix(0.022222222222222223,0,0,0.022222222222222223,61.93333333333334,0)" xlink:href="#Y"/></g><path fill="#3a414a" d="M216-614c-5 58-9 131-15 188 176 6 285 69 292 229C502 15 244 53 67-21l18-81c34 15 90 35 150 34 95-2 161-34 161-124 0-145-135-154-286-158 13-113 20-223 25-343h334v79H216" id="az"/><g id="C"><use transform="matrix(0.022222222222222223,0,0,0.022222222222222223,0,0)" xlink:href="#Y"/><use transform="matrix(0.022222222222222223,0,0,0.022222222222222223,12.622222222222224,0)" xlink:href="#O"/><use transform="matrix(0.022222222222222223,0,0,0.022222222222222223,24.066666666666666,0)" xlink:href="#aa"/><use transform="matrix(0.022222222222222223,0,0,0.022222222222222223,36.6888888888889,0)" xlink:href="#Y"/><use transform="matrix(0.022222222222222223,0,0,0.022222222222222223,49.31111111111111,0)" xlink:href="#Z"/><use transform="matrix(0.022222222222222223,0,0,0.022222222222222223,61.93333333333334,0)" xlink:href="#az"/></g><path fill="#3a414a" d="M255-109c52-125 101-269 137-411h96C441-339 364-151 295 0h-84C142-151 64-339 18-520h100c36 142 85 286 137 411" id="aA"/><g id="D"><use transform="matrix(0.015555555555555552,0,0,0.015555555555555552,0,0)" xlink:href="#ak"/><use transform="matrix(0.015555555555555552,0,0,0.015555555555555552,9.846666666666664,0)" xlink:href="#I"/><use transform="matrix(0.015555555555555552,0,0,0.015555555555555552,18.60444444444444,0)" xlink:href="#T"/><use transform="matrix(0.015555555555555552,0,0,0.015555555555555552,25.60444444444444,0)" xlink:href="#I"/><use transform="matrix(0.015555555555555552,0,0,0.015555555555555552,34.362222222222215,0)" xlink:href="#L"/><use transform="matrix(0.015555555555555552,0,0,0.015555555555555552,40.755555555555546,0)" xlink:href="#aA"/><use transform="matrix(0.015555555555555552,0,0,0.015555555555555552,48.40888888888888,0)" xlink:href="#I"/><use transform="matrix(0.015555555555555552,0,0,0.015555555555555552,57.16666666666666,0)" xlink:href="#Q"/></g><path fill="#3a414a" d="M82-567C68-745 227-812 397-759l-17 80c-21-10-52-17-88-17-102 0-122 72-117 176h200v78H175V0H82v-567" id="aB"/><g id="E"><use transform="matrix(0.015555555555555552,0,0,0.015555555555555552,0,0)" xlink:href="#aB"/><use transform="matrix(0.015555555555555552,0,0,0.015555555555555552,6.0666666666666655,0)" xlink:href="#P"/><use transform="matrix(0.015555555555555552,0,0,0.015555555555555552,15.306666666666665,0)" xlink:href="#L"/></g><g id="F"><use transform="matrix(0.015555555555555552,0,0,0.015555555555555552,0,0)" xlink:href="#I"/><use transform="matrix(0.015555555555555552,0,0,0.015555555555555552,8.757777777777775,0)" xlink:href="#T"/><use transform="matrix(0.015555555555555552,0,0,0.015555555555555552,15.757777777777774,0)" xlink:href="#ad"/><use transform="matrix(0.015555555555555552,0,0,0.015555555555555552,24.982222222222216,0)" xlink:href="#H"/><use transform="matrix(0.015555555555555552,0,0,0.015555555555555552,32.69777777777777,0)" xlink:href="#L"/><use transform="matrix(0.015555555555555552,0,0,0.015555555555555552,38.764444444444436,0)" xlink:href="#P"/><use transform="matrix(0.015555555555555552,0,0,0.015555555555555552,48.00444444444443,0)" xlink:href="#ac"/></g><g id="G"><use transform="matrix(0.022222222222222223,0,0,0.022222222222222223,0,0)" xlink:href="#Y"/><use transform="matrix(0.022222222222222223,0,0,0.022222222222222223,12.622222222222224,0)" xlink:href="#O"/><use transform="matrix(0.022222222222222223,0,0,0.022222222222222223,24.066666666666666,0)" xlink:href="#aa"/><use transform="matrix(0.022222222222222223,0,0,0.022222222222222223,36.6888888888889,0)" xlink:href="#Y"/><use transform="matrix(0.022222222222222223,0,0,0.022222222222222223,49.31111111111111,0)" xlink:href="#Z"/><use transform="matrix(0.022222222222222223,0,0,0.022222222222222223,61.93333333333334,0)" xlink:href="#aa"/></g></defs></g></svg>